<?xml version="1.0" encoding="utf-8"?>
<!-- Generator: Adobe Illustrator 24.1.2, SVG Export Plug-In . SVG Version: 6.00 Build 0)  -->
<svg version="1.1" id="Layer_1" xmlns="http://www.w3.org/2000/svg" xmlns:xlink="http://www.w3.org/1999/xlink" x="0px" y="0px"
	 width="16px" height="16px" viewBox="0 0 16 16" enable-background="new 0 0 16 16" xml:space="preserve">
<path id="canvas" fill="#F6F6F6" fill-opacity="0" d="M16,16H0V0h16V16z"/>
<path id="outline" fill="#F6F6F6" d="M14.4,1L16,2.6v5.8L14.4,10H10v3.4L8.4,15H1.6L0,13.4V7.6L1.6,6H6V2.6L7.6,1H14.4z"/>
<path id="iconFg" fill="#F0EFF1" d="M2,13h6V8H2V13z M3,9h4v1H3V9z M3,11h4v1H3V11z M14,6V3H8v3h0.4L9,6.6V6h4v1H9.4L10,7.6V8h4V6z
	 M13,5H9V4h4V5z"/>
<g id="iconBg">
	<path fill="#C27D1A" d="M3,11h4v1H3V11z M3,10h4V9H3V10z M9,8v5l-1,1H2l-1-1V8l1-1h6L9,8z M8,8H2v5h6V8z M9,6l1,1h3V6H9z M9,5h4V4
		H9V5z M14,2H8L7,3v3h1V3h6v5h-4v1h4l1-1V3L14,2z"/>
</g>
</svg>
