<?xml version="1.0" encoding="utf-8"?>
<!-- Generator: Adobe Illustrator 24.1.2, SVG Export Plug-In . SVG Version: 6.00 Build 0)  -->
<svg version="1.1" id="Layer_1" xmlns="http://www.w3.org/2000/svg" xmlns:xlink="http://www.w3.org/1999/xlink" x="0px" y="0px"
	 width="16px" height="16px" viewBox="0 0 16 16" enable-background="new 0 0 16 16" xml:space="preserve">
<g id="canvas">
	<path fill="#F6F6F6" fill-opacity="0" d="M16,16H0V0h16V16z"/>
</g>
<g id="outline">
	<path fill="#F6F6F6" d="M11.5,12c-1.9,0-3.6-1.2-4.2-3H5.9c-0.8,1.5-2.7,2.1-4.2,1.2C0.1,9.4-0.4,7.5,0.4,6s2.7-2.1,4.2-1.2
		C5.1,5,5.6,5.5,5.9,6h1.4c0.8-2.3,3.4-3.6,5.7-2.7s3.6,3.4,2.7,5.7C15.1,10.8,13.4,12,11.5,12z"/>
</g>
<g id="iconFg">
	<path fill="#F0EFF1" d="M11.5,9C10.7,9,10,8.3,10,7.5S10.7,6,11.5,6S13,6.7,13,7.5S12.3,9,11.5,9z"/>
</g>
<g id="iconBg">
	<path fill="#00539C" d="M11.5,4C9.8,4,8.3,5.3,8.1,7H5.2C4.9,5.9,3.8,5.2,2.6,5.4C1.5,5.7,0.8,6.9,1.1,8s1.4,1.8,2.6,1.6
		C4.4,9.4,5,8.8,5.2,8h2.9c0.3,1.9,2.1,3.2,4,2.9s3.2-2.1,2.9-4C14.7,5.3,13.2,4,11.5,4z M11.5,9C10.7,9,10,8.3,10,7.5
		S10.7,6,11.5,6S13,6.7,13,7.5S12.3,9,11.5,9z"/>
</g>
</svg>
