<?xml version="1.0" encoding="utf-8"?>
<!-- Generator: Adobe Illustrator 24.1.2, SVG Export Plug-In . SVG Version: 6.00 Build 0)  -->
<svg version="1.1" id="Layer_1" xmlns="http://www.w3.org/2000/svg" xmlns:xlink="http://www.w3.org/1999/xlink" x="0px" y="0px"
	 width="16px" height="16px" viewBox="0 0 16 16" enable-background="new 0 0 16 16" xml:space="preserve">
<g id="canvas">
	<path fill="#F6F6F6" fill-opacity="0" d="M16,0v16H0V0H16z"/>
</g>
<g id="outline">
	<path fill="#F6F6F6" d="M16,2v13H0V2h5V1h6v1H16z"/>
</g>
<g id="iconBg">
	<path fill="#424242" d="M11,3v11h4V3H11z M14,13h-2v-1h2V13z M14,11h-2v-1h2V11z M14,6h-2V4h2V6z M6,14h4V2H6V14z M7,3h2v1H7V3z
		 M7,10h2v1H7V10z M7,12h2v1H7V12z M1,14h4V3H1V14z M2,4h2v2H2V4z M2,10h2v1H2V10z M2,12h2v1H2V12z"/>
</g>
</svg>
