<?xml version="1.0" encoding="utf-8"?>
<!-- Generator: Adobe Illustrator 24.1.2, SVG Export Plug-In . SVG Version: 6.00 Build 0)  -->
<svg version="1.1" id="Layer_1" xmlns="http://www.w3.org/2000/svg" xmlns:xlink="http://www.w3.org/1999/xlink" x="0px" y="0px"
	 width="16px" height="16px" viewBox="0 0 16 16" enable-background="new 0 0 16 16" xml:space="preserve">
<path id="iconBg" fill="#424242" d="M8,6H5V5h3V6z M12,7H5v1h7V7z M12,9H5v1h7V9z M12,11H5v1h7V11z M10.4,1H3v14h11V4.6L10.4,1z
	 M10,2.2L12.8,5H10V2.2z M13,14H4V2h5v4h4V14z"/>
<path id="iconFg" fill="#F0EFF1" d="M9,6V2H4v12h9V6H9z M5,5h3v1H5V5z M12,12H5v-1h7V12z M12,10H5V9h7V10z M12,8H5V7h7V8z M13,5h-3
	V2L13,5z"/>
</svg>
