<?xml version="1.0" encoding="utf-8"?>
<!-- Generator: Adobe Illustrator 24.1.2, SVG Export Plug-In . SVG Version: 6.00 Build 0)  -->
<svg version="1.1" id="Layer_1" xmlns="http://www.w3.org/2000/svg" xmlns:xlink="http://www.w3.org/1999/xlink" x="0px" y="0px"
	 width="16px" height="16px" viewBox="0 0 16 16" enable-background="new 0 0 16 16" xml:space="preserve">
<path id="iconBg" fill="#424242" d="M11.2,1H4v9.8c0.3-0.3,0.6-0.5,1-0.6V2h5v4h4v8h-2.6l-1,1H15V4.8L11.2,1z M11,5V2.2L13.8,5H11z"
	/>
<g id="iconFg">
	<path fill="#F0EFF1" d="M10,6V2H5v8.2C5.3,10.1,5.7,10,6,10c0.7,0,1.4,0.3,2,0.7V10h1.4l3,3l-1,1H14V6H10z"/>
	<path fill="#F0EFF1" d="M11,2.2V5h2.8L11,2.2z"/>
	<path fill="#F0EFF1" d="M10,6V2H5v8.2C5.3,10.1,5.7,10,6,10c0.7,0,1.4,0.3,2,0.7V10h1.4l3,3l-1,1H14V6H10z"/>
	<path fill="#F0EFF1" d="M11,2.2V5h2.8L11,2.2z"/>
	<g>
		<path fill="#424242" d="M9,11v1l1,1l-1,1v1l2-2L9,11z M3,15v-1l-1-1l1-1v-1l-2,2L3,15z"/>
	</g>
</g>
<circle id="colorImportance" fill="#0095D7" cx="6" cy="13" r="2"/>
</svg>
