<?xml version="1.0" encoding="utf-8"?>
<!-- Generator: Adobe Illustrator 24.1.2, SVG Export Plug-In . SVG Version: 6.00 Build 0)  -->
<svg version="1.1" id="Layer_1" xmlns="http://www.w3.org/2000/svg" xmlns:xlink="http://www.w3.org/1999/xlink" x="0px" y="0px"
	 width="16px" height="16px" viewBox="0 0 16 16" enable-background="new 0 0 16 16" xml:space="preserve">
<path fill="#F0EFF1" d="M12.8,5H10V2.2L12.8,5z M9,6V2H4v6h6.2l2.8,2.8V6H9z M13,14v-0.8L12.2,14H13z"/>
<path fill="#c1c1c1" d="M10.2,1H3v7.8L3.8,8H4V2h5v4h4v4.8l1,1v-7L10.2,1z M10,5V2.2L12.8,5H10z M13,13.2l1-1V15h-2.8l1-1H13V13.2z
	 M4.8,9.9L2.6,12l2.1,2.1l-0.7,0.7L1.2,12l2.9-2.9L4.8,9.9z M7.7,8.8l0.9,0.4l-2.4,6l-0.9-0.4L7.7,8.8z M12.8,12l-2.9,2.9l-0.7-0.7
	l2.1-2.1L9.2,9.9l0.7-0.7L12.8,12z"/>
</svg>
