<?xml version="1.0" encoding="utf-8"?>
<!-- Generator: Adobe Illustrator 24.1.2, SVG Export Plug-In . SVG Version: 6.00 Build 0)  -->
<svg version="1.1" id="Layer_1" xmlns="http://www.w3.org/2000/svg" xmlns:xlink="http://www.w3.org/1999/xlink" x="0px" y="0px"
	 width="16px" height="16px" viewBox="0 0 16 16" enable-background="new 0 0 16 16" xml:space="preserve">
<path id="canvas" fill="#F6F6F6" fill-opacity="0" d="M16,16H0V0h16V16z"/>
<path id="outline" fill="#F6F6F6" d="M0,0v16h16V0H0z M13,10.9l-1.6-1.6L13,7.7V10.9z M13,7.7l-2.8-2.8L9.3,5.8L6.4,3H13V7.7z
	 M5.6,3L3,5.6V3C3,3,5.6,3,5.6,3z M3,8.4l1.8,1.8L5,10v2h2.2l1,1H3C3,13,3,8.4,3,8.4z M11,13l2-2v2H11z"/>
<path id="iconBg" fill="#424242" d="M11.6,11l-2,2l-1.4-1.4L8.8,11H6V7.6L4.8,8.8L3,7l3-3l1.8,1.8L6.6,7h2.9l0.7-0.7l1.4,1.4l-2,2
	L8.2,8.3L8.5,8H7v2h2.8l0.4-0.4C10.2,9.6,11.6,11,11.6,11z M2,13H1v2h2v-1H2V13z M2,10H1v2h1V10z M2,2h1V1H1v2h1V2z M9,1H7v1h2V1z
	 M4,15h2v-1H4V15z M2,4H1v2h1V4z M2,7H1v2h1V7z M6,1H4v1h2V1z M14,6h1V4h-1V6z M7,15h2v-1H7V15z M14,12h1v-2h-1V12z M13,1v1h1v1h1V1
	H13z M14,9h1V7h-1V9z M10,15h2v-1h-2V15z M10,2h2V1h-2V2z M14,14h-1v1h2v-2h-1V14z"/>
</svg>
