<?xml version="1.0" encoding="utf-8"?>
<!-- Generator: Adobe Illustrator 24.1.2, SVG Export Plug-In . SVG Version: 6.00 Build 0)  -->
<svg version="1.1" id="Layer_1" xmlns="http://www.w3.org/2000/svg" xmlns:xlink="http://www.w3.org/1999/xlink" x="0px" y="0px"
	 width="16px" height="16px" viewBox="0 0 16 16" enable-background="new 0 0 16 16" xml:space="preserve">
<path id="iconBg" fill="#C1C1C1" d="M3,3.6V3c0-1,1-1,1-1h5.7L13,5v8c0,0,0,0.2-0.1,0.5L12,12.6V6H9V3H4v1.6C4,4.6,3,3.6,3,3.6z
	 M3,5v2l7,7h2L3,5z M7.6,13H4V9.4l-1-1V13c0,1,1,1,1,1h4.6C8.6,14,7.6,13,7.6,13z"/>
<path id="iconFg" fill="#F0EFF1" d="M4,4.6V3h5v3h3v6.6L4,4.6z M4,9.4V13h3.6L4,9.4z"/>
</svg>
