<?xml version="1.0" encoding="utf-8"?>
<!-- Generator: Adobe Illustrator 24.1.2, SVG Export Plug-In . SVG Version: 6.00 Build 0)  -->
<svg version="1.1" id="Layer_1" xmlns="http://www.w3.org/2000/svg" xmlns:xlink="http://www.w3.org/1999/xlink" x="0px" y="0px"
	 width="16px" height="16px" viewBox="0 0 16 16" enable-background="new 0 0 16 16" xml:space="preserve">
<g id="canvas">
	<path fill="#F6F6F6" fill-opacity="0" d="M16,0v16H0V0H16z"/>
</g>
<g id="outline">
	<path fill="#F6F6F6" d="M16,6.5v3h-1.2c-0.6,2.7-2.7,4.8-5.3,5.3V16h-3v-1.2c-2.7-0.6-4.7-2.7-5.3-5.3H0v-3h1.2
		c0.6-2.7,2.7-4.7,5.3-5.3V0h3v1.2c2.7,0.6,4.7,2.7,5.3,5.3H16z"/>
</g>
<g id="iconBg">
	<path fill="#424242" d="M10,8c0,1.1-0.9,2-2,2S6,9.1,6,8s0.9-2,2-2S10,6.9,10,8z M15,7.5v1h-1c-0.2,2.9-2.6,5.3-5.5,5.5v1h-1v-1
		C4.6,13.8,2.2,11.4,2,8.5H1v-1h1C2.2,4.6,4.6,2.2,7.5,2V1h1v1c2.9,0.2,5.3,2.6,5.5,5.5H15z M12,8.5v-1h1C12.7,5.1,10.9,3.3,8.5,3v1
		h-1V3C5.1,3.3,3.3,5.1,3,7.5h1v1H3c0.2,2.4,2.1,4.3,4.5,4.5v-1h1v1c2.4-0.2,4.3-2.1,4.5-4.5H12z"/>
</g>
</svg>
