<?xml version="1.0" encoding="utf-8"?>
<!-- Generator: Adobe Illustrator 24.1.2, SVG Export Plug-In . SVG Version: 6.00 Build 0)  -->
<svg version="1.1" id="Layer_1" xmlns="http://www.w3.org/2000/svg" xmlns:xlink="http://www.w3.org/1999/xlink" x="0px" y="0px"
	 width="16px" height="16px" viewBox="0 0 16 16" enable-background="new 0 0 16 16" xml:space="preserve">
<g id="icon_x5F_fg">
	<path fill="#424242" d="M9.8,4.1l1.4,1.4L7.6,9.1L6.2,7.6C6.2,7.6,9.8,4.1,9.8,4.1z M8.4,11.2l0.7,0.7l-0.7,0.7l-2.1-2.1l-2.8,2.8
		l-0.7-0.7l2.8-2.8L3.4,7.6l0.7-0.7l0.7,0.7l4.9-4.9l3.5,3.5L8.4,11.2z M11.2,5.5L9.8,4.1L6.2,7.6l1.4,1.4
		C7.6,9.1,11.2,5.5,11.2,5.5z"/>
	<path fill="#F0EFF1" d="M6.2,7.6l3.5-3.5l1.4,1.4L7.6,9.1L6.2,7.6z"/>
</g>
</svg>
