<?xml version="1.0" encoding="utf-8"?>
<!-- Generator: Adobe Illustrator 24.1.2, SVG Export Plug-In . SVG Version: 6.00 Build 0)  -->
<svg version="1.1" id="Layer_1" xmlns="http://www.w3.org/2000/svg" xmlns:xlink="http://www.w3.org/1999/xlink" x="0px" y="0px"
	 width="16px" height="16px" viewBox="0 0 16 16" enable-background="new 0 0 16 16" xml:space="preserve">
<path id="iconBg" fill="#424242" d="M10,3.3L9.5,3.1L9.2,1H6.8L6.5,3.1C6.2,3.2,5.9,3.3,5.6,3.5L3.9,2.2L2.2,3.9l1.3,1.8L3.3,6
	L3.1,6.5L1,6.8v2.3l2.1,0.4c0.1,0.3,0.2,0.6,0.4,0.9l-1.3,1.8l1.7,1.6l1.8-1.3L6,12.7l0.4,0.1L6.8,15h2.3l0.4-2.1
	c0.3-0.1,0.6-0.2,0.9-0.4l1.8,1.3l1.6-1.6l-1.3-1.8l0.2-0.4l0.1-0.4L15,9.2V6.8l-2.1-0.4c-0.1-0.3-0.2-0.6-0.4-0.9l1.3-1.8l-1.6-1.7
	l-1.8,1.3C10.4,3.5,10,3.3,10,3.3z M10.2,8c0,1.2-1,2.2-2.2,2.2c-1.2,0-2.2-1-2.2-2.2s1-2.2,2.2-2.2S10.2,6.8,10.2,8z"/>
</svg>
