<?xml version="1.0" encoding="utf-8"?>
<!-- Generator: Adobe Illustrator 24.1.2, SVG Export Plug-In . SVG Version: 6.00 Build 0)  -->
<svg version="1.1" id="Layer_1" xmlns="http://www.w3.org/2000/svg" xmlns:xlink="http://www.w3.org/1999/xlink" x="0px" y="0px"
	 width="16px" height="16px" viewBox="0 0 16 16" enable-background="new 0 0 16 16" xml:space="preserve">
<g id="canvas">
	<path fill="#F6F6F6" fill-opacity="0" d="M16,0v16H0V0H16z"/>
</g>
<g id="outline">
	<path fill="#F6F6F6" d="M12.7,3c-1.2-1.1-2.9-1.7-4.5-1.6C6.3,1.3,4.6,2,3.3,3.3c-1.2,1.3-1.9,3-1.9,4.8c-0.1,1.7,0.6,3.4,1.8,4.6
		c1.3,1.2,3,1.9,4.7,1.8c1.1,0,2.3-0.2,3.3-0.6l0.6-0.3v-1.9c0.6-0.3,1.2-0.7,1.6-1.2c0.7-0.9,1.1-2.1,1-3.3
		C14.6,5.7,13.9,4.1,12.7,3z"/>
</g>
<g id="iconBg">
	<path fill="#424242" d="M12,3.8c-1.1-0.9-2.4-1.4-3.9-1.4C6.6,2.3,5.1,2.9,4.1,4C3,5.1,2.4,6.6,2.5,8.2C2.4,9.6,3,11.1,4,12.1
		c1.1,1,2.5,1.6,4,1.5c1,0,2-0.1,3-0.5v-0.8c-0.9,0.4-1.9,0.6-2.9,0.6c-1.3,0.1-2.5-0.4-3.4-1.3c-0.9-0.9-1.3-2.1-1.3-3.4
		c0-1.3,0.4-2.6,1.3-3.6c0.9-0.9,2.1-1.5,3.4-1.4c1.2-0.1,2.4,0.4,3.3,1.2c0.8,0.8,1.2,1.9,1.2,3.1c0,0.7-0.1,1.4-0.5,2.1
		c-0.2,0.5-0.7,0.8-1.2,0.8c-0.5,0-0.8-0.5-0.8-1.4c0,0,0.1-1.3,0.3-3.8H9.5c0,0.4-0.1,0.7-0.1,0.8h0C9.3,5.6,9.2,5.3,8.9,5.2
		C8.7,5,8.4,4.9,8,4.9C7.2,4.9,6.5,5.3,6,6C5.4,6.7,5.1,7.6,5.2,8.5c0,0.7,0.2,1.3,0.6,1.9c0.4,0.5,0.9,0.7,1.5,0.7
		c1,0,1.8-0.7,2-1.6h0c0,1.1,0.5,1.6,1.5,1.6c0.8,0,1.5-0.4,2-1c0.6-0.8,0.8-1.7,0.8-2.7C13.6,6,13,4.7,12,3.8z M8.8,9.4
		C8.5,10,8,10.3,7.4,10.3c-0.4,0-0.7-0.2-0.9-0.5C6.2,9.4,6.1,9,6.1,8.5c0-0.7,0.2-1.4,0.5-2C6.9,6.1,7.5,5.7,8,5.7
		c0.8,0,1.2,0.5,1.2,1.5C9.3,8,9.1,8.8,8.8,9.4z"/>
</g>
</svg>
