<?xml version="1.0" encoding="utf-8"?>
<!-- Generator: Adobe Illustrator 24.1.2, SVG Export Plug-In . SVG Version: 6.00 Build 0)  -->
<svg version="1.1" id="Layer_1" xmlns="http://www.w3.org/2000/svg" xmlns:xlink="http://www.w3.org/1999/xlink" x="0px" y="0px"
	 width="16px" height="16px" viewBox="0 0 16 16" enable-background="new 0 0 16 16" xml:space="preserve">
<g id="canvas">
	<path id="_Compound_Path_" fill="#F6F6F6" fill-opacity="0" d="M0,0h16v16H0V0z"/>
</g>
<g id="outline">
	<path fill="#F6F6F6" d="M0,3v9c0,0.5,0.2,1.1,0.6,1.4C1,13.7,1.5,13.9,2,14h11.7L16,8.2V7h-1V5c0-1.1-0.8-2-1.9-2c0,0-0.1,0-0.1,0
		h-2.9l-1-2H2c-1.1,0-2,0.8-2,1.9C0,2.9,0,2.9,0,3z"/>
</g>
<g id="iconBg">
	<path fill="#DCB67A" d="M1,3v9c0,0.5,0.4,1,0.9,1c0,0,0,0,0.1,0l0,0V3h6l1,2h4v3H4l-2,5h11l2-5h-1V5c0-1-1.2-1-1-1H9.5l-1-2H2
		C1.5,2,1,2.4,1,3C1,3,1,3,1,3z"/>
</g>
</svg>
