<?xml version="1.0" encoding="utf-8"?>
<!-- Generator: Adobe Illustrator 24.1.2, SVG Export Plug-In . SVG Version: 6.00 Build 0)  -->
<svg version="1.1" id="Layer_1" xmlns="http://www.w3.org/2000/svg" xmlns:xlink="http://www.w3.org/1999/xlink" x="0px" y="0px"
	 width="16px" height="16px" viewBox="0 0 16 16" enable-background="new 0 0 16 16" xml:space="preserve">
<path id="canvas" fill="#F6F6F6" fill-opacity="0" d="M0,0h16v16H0V0z"/>
<path id="outline" fill="#F6F6F6" d="M1.5,1h8.1l1,2h2.9C14.3,3,15,3.7,15,4.5v8c0,0.8-0.7,1.5-1.5,1.5h-12C0.7,14,0,13.3,0,12.5
	v-10C0,1.7,0.7,1,1.5,1z"/>
<path id="iconBg" fill="#DCB67A" d="M13.5,4H10L9,2H1.5C1.2,2,1,2.2,1,2.5v10C1,12.8,1.2,13,1.5,13h12c0.3,0,0.5-0.2,0.5-0.5v-8
	C14,4.2,13.8,4,13.5,4z M2,3h6.4l0.5,1H2C2,4,2,3,2,3z"/>
<g id="iconFg">
	<path fill="#F0EFF1" d="M2,3h6.4l0.5,1H2C2,4,2,3,2,3z M5,4H3v2h2V4z M5,7H4v1h1V7z M4,8H3v1h1V8z M4,10H3v1h1V10z M5,9H4v1h1V9z
		 M5,11H4v1h1V11z M4,12H3v1h1V12z"/>
	<path fill="#424242" d="M5,3v1H3V3H5z M5,4v2H3V4H2v9h1v-1h1v-1H3v-1h1V9H3V8h1V7h1v1H4v1h1v1H4v1h1v1H4v1h2V4H5z"/>
</g>
</svg>
