<?xml version="1.0" encoding="utf-8"?>
<svg version="1.1" id="Layer_1" xmlns="http://www.w3.org/2000/svg" xmlns:xlink="http://www.w3.org/1999/xlink" x="0px" y="0px"
	 width="16px" height="16px" viewBox="0 0 16 16" enable-background="new 0 0 16 16" xml:space="preserve">
<path id="outline" fill="#F6F6F6" fill-opacity="0" d="M0,0h16v16H0V0z"/>
<g id="icon_x5F_bg">
	<path fill="#388A34" d="M8,10.9c-0.5,0.2-1.1,0.4-1.8,0.4c-1,0-1.8-0.3-2.4-1C3.3,9.7,3,8.9,3,7.9c0-1.1,0.3-2,1-2.6s1.5-1,2.5-1
		C7,4.3,7.6,4.3,8,4.5V6C7.6,5.7,7.1,5.6,6.5,5.6C6,5.6,5.5,5.8,5.1,6.1c-0.4,0.4-0.6,1-0.6,1.7C4.5,8.4,4.7,9,5,9.3
		c0.3,0.4,0.8,0.6,1.4,0.6C7,9.9,7.5,9.8,8,9.5C8,9.5,8,10.9,8,10.9z M14,6V5h-1V4h-1v1h-1V4h-1v1H9v1h1v1H9v1h1v1h1V8h1v1h1V8h1V7
		h-1V6H14z M12,7h-1V6h1V7z"/>
</g>
</svg>
